PathFileType	4	(X/Y/Z)	../Python\walking\Walking16\task.trc
DataRate	CameraRate	NumFrames	NumMarkers	Units	OrigDataRate	OrigDataStartFrame	OrigNumFrames
200.000000	200.000000	4	30	mm	200.000000	45	452
Frame#	Time	C7			RBAK			CLAV			STRN			RASI			LASI			PE01			RTH1			RTH2			RTH3			RD5M			RTOE			LTH2			LTH3			LTB2			LTB3			LHEE			LTOE			LD5M			LTB1			RTB2			RHEE			RTB3			RTB1			LTH1			LPSI			PE03			PE02			RPSI			T10			
		X1	Y1	Z1	X2	Y2	Z2	X3	Y3	Z3	X4	Y4	Z4	X5	Y5	Z5	X6	Y6	Z6	X7	Y7	Z7	X8	Y8	Z8	X9	Y9	Z9	X10	Y10	Z10	X11	Y11	Z11	X12	Y12	Z12	X13	Y13	Z13	X14	Y14	Z14	X15	Y15	Z15	X16	Y16	Z16	X17	Y17	Z17	X18	Y18	Z18	X19	Y19	Z19	X20	Y20	Z20	X21	Y21	Z21	X22	Y22	Z22	X23	Y23	Z23	X24	Y24	Z24	X25	Y25	Z25	X26	Y26	Z26	X27	Y27	Z27	X28	Y28	Z28	X29	Y29	Z29	X30	Y30	Z30	

46	0.365	-1012.585083007813	1353.540405273438	168.5757141113282	-1055.755249023438	1252.813720703125	276.735076904297	-895.348754882813	1254.235595703125	157.0988311767579	-839.3894653320317	1067.92333984375	156.0359954833985	-875.0632934570317	875.5901489257817	293.3778686523439	-881.062622070313	860.2708129882817	66.0407409667969	-1071.064331054688	955.6713867187505	192.5787048339845	-908.0462036132817	583.6239013671877	325.1432189941407	-878.2944335937505	512.140563964844	305.2000122070314	-859.9625854492192	570.339538574219	314.3539123535157	-829.4318237304692	14.6111707687378	270.884735107422	-792.379272460938	29.23683166503908	216.167694091797	-921.7035522460942	540.0252685546877	38.43535232543947	-858.329223632813	586.712585449219	23.96332168579102	-1061.823486328125	295.6639099121095	65.637321472168	-1013.274719238282	288.0113830566407	60.09119033813479	-1202.286376953125	183.4482727050782	138.3126525878907	-1068.011596679688	64.68621826171878	99.48746490478521	-1109.935791015625	78.34426879882815	64.14317321777347	-1005.183837890625	348.8901672363282	49.56518173217776	-907.0980834960942	249.2043609619142	291.0691833496095	-980.0549926757817	27.51284790039064	205.9641876220704	-880.088012695313	211.4333801269532	271.958709716797	-862.6567993164067	288.2832641601564	279.9248046875001	-907.7875976562505	598.568298339844	23.46186256408692	-1076.175170898438	917.013549804688	153.4304199218751	-1087.782348632813	894.174926757813	170.5849761962891	-1086.396728515625	897.3753051757817	221.1393432617189	-1072.131713867188	923.8627929687505	242.3437042236329	-1049.695556640625	1055.623657226563	181.9902648925782	
47	0.37	-1005.888610839844	1354.52392578125	168.6012878417969	-1048.57861328125	1254.160522460938	277.3127746582032	-888.8635253906255	1255.139282226563	156.6242218017579	-833.221557617188	1068.730712890625	155.5587310791016	-868.693481445313	876.2214355468755	293.5527648925782	-875.1465454101567	861.581176757813	66.14698028564456	-1064.682373046875	956.6706542968755	193.4542999267579	-903.9166870117192	584.0913085937502	324.8670959472657	-875.2852172851567	512.1571044921877	304.9103393554689	-856.0791015625005	570.1897583007815	313.7697143554689	-829.4450073242192	14.68412590026856	270.8264770507814	-792.3481445312505	29.24930953979494	216.1043548583986	-910.3701171875005	541.7002563476565	38.89000701904298	-847.7463989257817	589.432800292969	24.31565284729005	-1046.238403320313	294.338592529297	65.76973724365237	-997.529663085938	287.6964721679689	60.24736022949222	-1184.726318359375	178.6649322509766	138.1612091064454	-1046.7109375	63.88182067871097	99.42935180664068	-1088.99658203125	76.39937591552737	64.02703094482425	-990.6893920898442	348.7526855468751	49.82427597045901	-906.122680664063	249.2430877685548	290.7767639160157	-980.0725097656255	27.58120727539064	205.8784484863282	-879.2780761718755	211.3286285400392	271.6283569335939	-861.5048828125005	288.1384277343751	279.5171203613282	-897.541625976563	600.4390869140627	23.79848861694337	-1070.042846679688	918.084838867188	154.2589721679688	-1081.592041015625	895.3209838867192	171.2587585449219	-1080.11572265625	898.3264160156255	221.8251342773439	-1065.751586914063	924.8110351562505	243.1025848388673	-1043.29248046875	1056.735961914063	182.8672027587891	
48	0.375	-999.219848632813	1355.440795898438	168.6130676269532	-1041.443603515625	1255.443359375	277.8645324707032	-882.4074707031255	1255.976928710938	156.1539764404297	-827.0830688476567	1069.482299804688	155.1010894775391	-862.3292846679692	876.8236694335942	293.719451904297	-869.195922851563	862.8596801757817	66.27142333984378	-1058.309204101563	957.5923461914067	194.3082580566407	-899.8483886718755	584.5209960937502	324.563934326172	-872.3740844726567	512.1434326171877	304.6072692871095	-852.265747070313	569.9926757812502	313.1783142089845	-829.460571289063	14.76558589935303	270.759490966797	-792.3184204101567	29.26852035522462	216.0375061035157	-899.1036987304692	543.3985595703127	39.35509109497072	-837.2512817382817	592.1297607421877	24.73559951782228	-1030.575927734375	292.7291870117189	65.84658813476565	-981.7111816406255	287.1887207031251	60.40313339233401	-1166.842895507813	173.5521697998047	137.957504272461	-1025.168090820313	62.90192031860354	99.3830184936524	-1067.789306640625	74.25312805175784	63.91335678100589	-976.2090454101567	348.3947753906251	50.0363578796387	-905.1692504882817	249.2780914306642	290.4736328125001	-980.0894165039067	27.63734436035158	205.7838592529298	-878.4838256835942	211.2283935546876	271.2869262695314	-860.372192382813	287.9910583496095	279.0962219238282	-887.349731445313	602.3059082031252	24.1687355041504	-1063.903686523438	919.0813598632817	155.0552368164063	-1075.391723632813	896.3864746093755	171.9053192138672	-1073.830444335938	899.1941528320317	222.4838256835939	-1059.370971679688	925.6755981445317	243.8378906250001	-1036.911254882813	1057.778686523438	183.7197875976563	
49	0.38	-992.5784301757817	1356.28662109375	168.6121826171876	-1034.3486328125	1256.656982421875	278.3915100097657	-875.9791870117192	1256.744995117188	155.6896514892579	-820.9710083007817	1070.1748046875	154.6647033691407	-855.9688110351567	877.393920898438	293.8795471191407	-863.2052612304692	864.0998535156255	66.41589355468753	-1051.94384765625	958.4310913085942	195.1342010498048	-895.8432617187505	584.9102172851565	324.2390136718751	-869.5486450195317	512.1031494140627	304.2937622070314	-848.523315429688	569.750671386719	312.5858459472657	-829.4785156250005	14.85504722595216	270.6846008300782	-792.2916870117192	29.29310798645021	215.9686431884767	-887.9291992187505	545.1079711914065	39.83339691162111	-826.8787231445317	594.7898559570315	25.20969772338869	-1014.835083007813	290.8469543457032	65.86788177490237	-965.8242797851567	286.4926757812501	60.5589294433594	-1148.634643554688	168.1361389160157	137.7033996582032	-1003.391235351563	61.77680969238284	99.34442138671881	-1046.320556640625	71.94007110595706	63.79624938964847	-961.7402954101567	347.8164978027345	50.20018005371097	-904.2350463867192	249.3077392578126	290.1646423339845	-980.1045532226567	27.68167114257814	205.6818237304689	-877.704467773438	211.131805419922	270.9385375976564	-859.2584838867192	287.840057373047	278.6674194335939	-877.2337036132817	604.1560058593752	24.57188796997072	-1057.754028320313	919.996459960938	155.8138885498047	-1069.178100585938	897.3645629882817	172.5203552246094	-1067.53857421875	899.9736938476567	223.1110382080079	-1052.988037109375	926.4531250000005	244.5453948974611	-1030.550170898438	1058.746826171875	184.5451202392579	
